<svg width="24" height="24" viewBox="0 0 24 24" fill="none" xmlns="http://www.w3.org/2000/svg">
<path opacity="0.2" d="M12 3.0625C16.936 3.0625 20.9375 7.06395 20.9375 12C20.9375 16.936 16.936 20.9375 12 20.9375C7.06395 20.9375 3.0625 16.936 3.0625 12C3.0625 7.06395 7.06395 3.0625 12 3.0625Z" fill="white" stroke="white" stroke-width="0.125"/>
<path d="M12 21C16.9706 21 21 16.9706 21 12C21 7.02944 16.9706 3 12 3C7.02944 3 3 7.02944 3 12C3 16.9706 7.02944 21 12 21Z" stroke="white" stroke-width="2" stroke-linecap="round" stroke-linejoin="round"/>
<path d="M8.25 15L11.25 12L8.25 9" stroke="white" stroke-width="2" stroke-linecap="round" stroke-linejoin="round"/>
<path d="M13.5 15L16.5 12L13.5 9" stroke="white" stroke-width="2" stroke-linecap="round" stroke-linejoin="round"/>
</svg>
