<svg width="24" height="24" viewBox="0 0 24 24" fill="none" xmlns="http://www.w3.org/2000/svg">
<path opacity="0.2" d="M12.0205 12.0357L11.9375 21.9469C11.842 21.9394 11.7486 21.9126 11.665 21.8648V21.8639L3.41406 17.2232C3.30811 17.1628 3.21991 17.0755 3.1582 16.9703C3.0963 16.8646 3.06318 16.7442 3.0625 16.6217V7.37754C3.06225 7.2743 3.08522 7.17268 3.12891 7.07969L12.0205 12.0357Z" fill="white" stroke="white" stroke-width="0.125"/>
<path d="M21 16.6219V7.37812C20.9993 7.2446 20.9634 7.11363 20.8959 6.99841C20.8284 6.8832 20.7317 6.78781 20.6156 6.72187L12.3656 2.08125C12.2545 2.01707 12.1284 1.98328 12 1.98328C11.8716 1.98328 11.7455 2.01707 11.6344 2.08125L3.38437 6.72187C3.26827 6.78781 3.1716 6.8832 3.10411 6.99841C3.03663 7.11363 3.00072 7.2446 3 7.37812V16.6219C3.00072 16.7554 3.03663 16.8864 3.10411 17.0016C3.1716 17.1168 3.26827 17.2122 3.38437 17.2781L11.6344 21.9188C11.7455 21.9829 11.8716 22.0167 12 22.0167C12.1284 22.0167 12.2545 21.9829 12.3656 21.9188L20.6156 17.2781C20.7317 17.2122 20.8284 17.1168 20.8959 17.0016C20.9634 16.8864 20.9993 16.7554 21 16.6219V16.6219Z" stroke="white" stroke-width="2" stroke-linecap="round" stroke-linejoin="round"/>
<path d="M16.5938 14.2969V9.42188L7.5 4.40625" stroke="white" stroke-width="2" stroke-linecap="round" stroke-linejoin="round"/>
<path d="M20.8969 6.99375L12.0844 12L3.10312 6.99375" stroke="white" stroke-width="2" stroke-linecap="round" stroke-linejoin="round"/>
<path d="M12.0844 12L12 22.0125" stroke="white" stroke-width="2" stroke-linecap="round" stroke-linejoin="round"/>
</svg>
